<?xml version="1.0" standalone="no"?>
<!DOCTYPE svg PUBLIC "-//W3C//DTD SVG 20010904//EN"
 "http://www.w3.org/TR/2001/REC-SVG-20010904/DTD/svg10.dtd">
<svg version="1.0" xmlns="http://www.w3.org/2000/svg"
 width="383.000000pt" height="222.000000pt" viewBox="0 0 383.000000 222.000000"
 preserveAspectRatio="xMidYMid meet">

<g transform="translate(0.000000,222.000000) scale(0.100000,-0.100000)"
fill="#000000" stroke="none">
<path d="M1282 1880 c-27 -11 -44 -52 -36 -86 5 -19 2 -24 -12 -24 -11 0 -46
-13 -79 -29 -86 -40 -175 -143 -175 -201 0 -13 -9 -24 -24 -30 -14 -5 -30 -19
-37 -32 -6 -13 -18 -27 -25 -31 -18 -11 -18 -32 1 -47 18 -15 11 -30 -15 -30
-27 0 -44 -34 -25 -50 8 -7 15 -20 15 -29 0 -9 5 -22 11 -28 8 -8 12 -81 13
-224 l1 -212 -40 -21 c-22 -12 -41 -30 -43 -41 -6 -30 -22 -45 -48 -45 -35 0
-64 -34 -64 -75 0 -30 -5 -37 -40 -55 -22 -11 -55 -36 -75 -56 -19 -19 -65
-48 -102 -65 -36 -16 -64 -32 -61 -34 3 -3 40 11 83 31 207 94 446 155 685
175 305 26 665 -40 951 -172 49 -23 92 -40 94 -37 3 3 -27 20 -67 38 -40 19
-83 46 -96 62 -13 15 -46 40 -73 55 -44 25 -49 31 -49 64 0 42 -22 66 -65 71
-24 2 -31 9 -35 33 -5 28 -26 45 -72 59 -16 5 -18 24 -18 225 0 132 4 222 10
226 16 10 42 74 36 90 -3 8 -17 15 -31 15 -28 0 -33 21 -10 40 13 11 12 16
-10 42 -14 16 -25 34 -25 39 0 5 -11 14 -24 19 -15 5 -27 20 -31 39 -18 81
-116 178 -211 208 -53 16 -54 18 -54 54 0 62 -61 95 -128 69z m93 -30 c17 -19
17 -42 0 -82 -6 -15 -2 -18 27 -18 47 0 150 -53 189 -97 37 -43 73 -118 65
-138 -3 -9 5 -16 24 -20 34 -7 55 -51 51 -107 -2 -36 -1 -38 28 -38 17 0 31
-2 31 -5 0 -3 -11 -23 -25 -45 -25 -39 -25 -41 -25 -270 l0 -230 28 -5 c43
-10 57 -20 62 -50 4 -23 12 -31 40 -38 50 -13 60 -24 60 -71 0 -41 1 -43 50
-63 74 -32 61 -46 -17 -18 -382 133 -826 138 -1227 14 -54 -17 -100 -28 -103
-25 -3 2 17 16 44 30 45 22 49 27 45 54 -6 45 12 70 61 79 38 8 42 12 45 40 3
27 9 33 45 45 l42 13 3 226 c2 192 0 228 -13 239 -8 7 -15 21 -15 31 0 10 -4
21 -10 24 -20 12 -9 25 21 25 31 0 32 0 26 42 -7 51 13 95 48 104 18 4 25 13
25 30 0 90 150 223 253 224 40 0 44 5 22 34 -20 27 -19 42 5 66 26 26 72 26
95 0z"/>
<path d="M1273 1518 c-29 -32 -37 -65 -22 -99 27 -67 123 -76 159 -16 27 43
25 69 -6 106 -21 26 -33 31 -68 31 -31 0 -48 -6 -63 -22z m117 -28 c0 -5 -9
-14 -20 -20 -11 -6 -20 -17 -20 -25 0 -17 -24 -10 -52 14 -26 22 -22 32 7 19
19 -9 29 -8 47 5 27 19 38 21 38 7z"/>
<path d="M2790 1623 c-43 -17 -38 -51 10 -70 28 -11 40 -22 40 -36 0 -17 -5
-19 -42 -14 -39 5 -41 4 -24 -9 36 -26 86 -9 86 30 0 18 -9 27 -41 39 -48 19
-48 42 -1 42 34 0 42 9 16 19 -18 7 -23 7 -44 -1z"/>
<path d="M3193 1618 c-15 -19 -53 -115 -52 -130 0 -7 5 -3 11 10 16 32 82 32
99 0 7 -13 14 -18 16 -12 4 11 -52 144 -60 144 -3 0 -9 -6 -14 -12z m27 -48
c13 -25 5 -40 -21 -40 -19 0 -24 15 -13 44 8 22 21 20 34 -4z"/>
<path d="M1880 1566 c0 -45 4 -58 22 -70 53 -37 98 -3 98 74 0 28 -4 50 -10
50 -5 0 -10 -22 -10 -48 0 -53 -12 -72 -46 -72 -26 0 -34 17 -34 76 0 24 -4
44 -10 44 -5 0 -10 -24 -10 -54z"/>
<path d="M2050 1555 c0 -37 4 -65 10 -65 6 0 10 21 10 48 l0 47 50 -55 49 -55
1 73 c0 80 -17 100 -22 25 l-3 -48 -35 47 c-49 66 -60 62 -60 -17z"/>
<path d="M2220 1556 c0 -36 5 -68 10 -71 6 -4 10 20 10 64 0 41 -4 71 -10 71
-6 0 -10 -28 -10 -64z"/>
<path d="M2296 1598 c11 -39 49 -111 57 -112 5 -1 21 29 37 67 15 37 24 67 19
67 -6 0 -19 -22 -31 -50 -11 -27 -24 -50 -27 -50 -4 0 -15 23 -25 50 -17 49
-44 73 -30 28z"/>
<path d="M2462 1553 l3 -68 48 -3 c28 -2 47 1 47 7 0 6 -18 11 -40 11 -36 0
-40 3 -40 24 0 21 5 25 38 29 l37 4 -37 1 c-33 2 -38 5 -38 26 0 22 5 25 43
29 40 3 39 4 -11 5 l-53 2 3 -67z"/>
<path d="M2610 1556 c0 -37 4 -66 10 -66 6 0 10 11 10 25 0 34 21 32 54 -6 15
-17 30 -28 33 -25 4 3 -2 15 -12 26 -17 19 -17 21 -1 39 10 11 16 30 14 43 -3
20 -9 23 -55 26 l-53 3 0 -65z m85 24 c0 -21 -5 -26 -32 -28 -31 -3 -33 -1
-33 28 0 29 2 31 33 28 27 -2 32 -7 32 -28z"/>
<path d="M2910 1555 c0 -37 4 -65 10 -65 6 0 10 28 10 65 0 37 -4 65 -10 65
-6 0 -10 -28 -10 -65z"/>
<path d="M2980 1556 c0 -36 5 -68 11 -71 6 -4 26 -4 45 0 105 19 96 135 -11
135 l-45 0 0 -64z m97 28 c15 -24 15 -29 2 -53 -10 -18 -24 -27 -47 -29 l-32
-3 0 55 c0 55 0 56 30 56 21 0 35 -8 47 -26z"/>
<path d="M3320 1549 l0 -72 41 6 c52 7 79 31 79 72 0 43 -27 65 -78 65 l-42 0
0 -71z m84 45 c20 -19 21 -68 2 -83 -8 -7 -27 -11 -43 -9 -25 3 -28 8 -31 42
-2 21 -1 44 2 52 7 19 51 18 70 -2z"/>
<path d="M2380 1439 c0 -5 5 -7 10 -4 6 3 10 8 10 11 0 2 -4 4 -10 4 -5 0 -10
-5 -10 -11z"/>
<path d="M1902 1340 c-31 -71 -31 -87 1 -50 22 26 62 26 81 -2 9 -12 18 -19
21 -17 8 9 -49 139 -61 139 -6 0 -25 -31 -42 -70z m56 15 c16 -35 16 -35 -13
-35 -27 0 -28 3 -19 38 8 29 18 28 32 -3z"/>
<path d="M2030 1356 c0 -65 16 -86 65 -86 42 0 55 20 55 89 0 70 -18 65 -22
-5 -3 -64 -23 -88 -55 -68 -13 8 -19 27 -21 68 -4 72 -22 74 -22 2z"/>
<path d="M2175 1400 c3 -5 15 -10 26 -10 17 0 19 -7 19 -60 0 -33 4 -60 10
-60 6 0 10 27 10 60 0 53 2 60 20 60 11 0 20 5 20 10 0 6 -25 10 -56 10 -34 0
-53 -4 -49 -10z"/>
<path d="M2325 1385 c-28 -27 -31 -45 -14 -78 16 -30 28 -37 67 -37 41 0 72
30 72 70 0 65 -78 93 -125 45z m85 -5 c11 -11 20 -30 20 -42 0 -27 -27 -58
-52 -58 -24 0 -58 35 -58 60 0 23 33 60 55 60 8 0 24 -9 35 -20z"/>
<path d="M2480 1340 c0 -40 4 -70 10 -70 6 0 10 20 10 45 0 25 3 45 8 45 4 0
22 -21 41 -45 18 -25 37 -45 42 -45 5 0 9 32 9 70 0 40 -4 70 -10 70 -5 0 -10
-20 -10 -45 0 -25 -4 -45 -8 -45 -5 0 -23 20 -41 45 -18 25 -36 45 -42 45 -5
0 -9 -31 -9 -70z"/>
<path d="M2650 1390 c-11 -11 -20 -33 -20 -50 0 -67 88 -96 129 -44 27 35 26
59 -4 89 -30 31 -77 33 -105 5z m92 -21 c24 -32 11 -75 -27 -85 -56 -14 -90
67 -42 101 28 20 45 16 69 -16z"/>
<path d="M2807 1403 c-11 -10 -8 -133 3 -133 6 0 10 20 10 45 0 25 3 45 7 45
4 0 17 -12 28 -26 l21 -27 22 34 c22 35 25 31 22 -33 -1 -22 3 -38 9 -38 7 0
11 27 11 70 0 39 -4 70 -9 70 -5 0 -19 -16 -31 -35 -24 -39 -33 -38 -55 6 -15
29 -26 35 -38 22z"/>
<path d="M3000 1344 c-31 -67 -33 -97 -4 -56 20 29 69 30 84 2 6 -11 15 -20
20 -20 12 0 -45 133 -59 138 -6 2 -25 -27 -41 -64z m60 -11 c0 -7 -11 -13 -25
-13 -29 0 -29 0 -13 35 11 25 13 26 25 9 7 -10 13 -24 13 -31z"/>
<path d="M3187 1403 c-4 -3 -7 -35 -7 -70 l0 -63 45 0 c53 0 85 25 85 68 0 33
-8 45 -37 61 -24 12 -76 15 -86 4z m92 -27 c20 -24 9 -69 -20 -85 -42 -23 -59
-9 -59 49 l0 50 34 0 c18 0 39 -6 45 -14z"/>
<path d="M3340 1340 l0 -70 53 2 c50 1 50 2 10 5 -38 4 -43 7 -43 29 0 21 5
24 35 24 19 0 35 5 35 10 0 6 -16 10 -35 10 -28 0 -35 4 -35 20 0 16 7 20 34
20 19 0 38 5 41 10 4 6 -13 10 -44 10 l-51 0 0 -70z"/>
<path d="M2260 1120 c0 -40 4 -70 10 -70 6 0 10 24 10 53 l1 52 24 -30 25 -30
25 30 24 30 1 -52 c0 -29 5 -53 10 -53 6 0 10 30 10 70 0 78 -13 91 -43 40
-10 -16 -22 -30 -27 -30 -5 0 -17 14 -27 30 -30 51 -43 38 -43 -40z"/>
<path d="M2455 1125 c-16 -36 -26 -68 -22 -71 3 -3 10 4 17 15 15 29 75 29 90
0 7 -11 14 -18 17 -15 10 9 -48 136 -62 136 -7 0 -25 -29 -40 -65z m55 16 c16
-31 12 -41 -15 -41 -27 0 -28 3 -19 38 8 27 20 28 34 3z"/>
<path d="M2590 1120 c0 -40 4 -70 10 -70 6 0 10 24 10 53 l1 52 49 -55 49 -55
1 73 c0 80 -17 100 -22 25 l-3 -48 -35 47 c-49 67 -60 63 -60 -22z"/>
<path d="M2750 1119 c0 -44 4 -68 10 -64 6 3 10 35 10 71 0 36 -4 64 -10 64
-6 0 -10 -30 -10 -71z"/>
<path d="M2838 1183 c23 -2 42 -7 42 -10 0 -3 -18 -27 -40 -53 -22 -26 -40
-53 -40 -59 0 -7 21 -11 55 -11 30 0 55 5 55 10 0 6 -18 10 -40 10 -22 0 -40
3 -40 6 0 3 18 28 40 54 22 26 40 51 40 54 0 3 -26 5 -57 4 -50 -1 -52 -2 -15
-5z"/>
<path d="M2960 1124 c-34 -74 -34 -74 -21 -74 5 0 13 9 16 20 5 15 15 20 45
20 30 0 40 -5 45 -20 6 -17 25 -29 25 -15 0 18 -61 135 -70 135 -6 0 -24 -30
-40 -66z m58 11 c10 -21 9 -27 -3 -31 -8 -4 -22 -4 -30 0 -12 4 -13 10 -3 31
6 14 14 25 18 25 4 0 12 -11 18 -25z"/>
<path d="M3096 1123 l2 -68 46 -3 c26 -2 46 1 46 7 0 5 -17 11 -37 13 l-38 3
-3 58 c-4 80 -17 72 -16 -10z"/>
<path d="M3218 1120 l4 -70 49 0 c60 0 65 18 7 22 -35 2 -43 7 -43 23 0 16 9
21 40 26 l40 5 -40 5 c-32 3 -40 8 -40 24 0 16 9 21 45 26 l45 6 -55 2 -55 1
3 -70z"/>
<path d="M3349 1174 c-18 -21 -1 -46 40 -58 19 -6 31 -15 31 -26 0 -23 -26
-33 -52 -19 -11 6 -22 8 -25 5 -11 -11 46 -28 72 -22 21 5 26 12 23 33 -2 14
-10 29 -18 33 -44 20 -55 28 -55 41 0 9 11 14 33 13 17 -1 32 2 32 7 0 15 -67
10 -81 -7z"/>
<path d="M2442 813 c5 -128 21 -167 76 -190 46 -19 124 -13 160 14 38 28 51
74 51 186 l1 97 -35 0 -35 0 0 -105 c0 -99 -2 -107 -25 -130 -29 -30 -64 -32
-96 -6 -22 18 -24 28 -27 130 l-4 111 -35 0 -36 0 5 -107z"/>
<path d="M2792 783 c-75 -170 -74 -167 -40 -171 23 -3 31 3 45 32 l17 36 76 0
76 0 17 -35 c14 -29 22 -35 47 -35 16 0 30 3 30 6 0 4 -30 74 -66 155 l-66
149 -38 0 -37 0 -61 -137z m127 16 c11 -29 21 -56 21 -60 0 -5 -22 -9 -50 -9
-27 0 -50 4 -50 9 0 16 43 111 50 111 4 0 17 -23 29 -51z"/>
<path d="M3092 768 l3 -153 28 -3 27 -3 0 90 c0 50 4 91 9 91 5 0 27 -31 50
-70 26 -43 48 -70 59 -70 11 0 32 27 57 70 22 38 43 70 47 70 4 0 9 -39 10
-87 3 -88 3 -88 31 -91 l27 -3 0 155 0 156 -28 0 c-24 0 -34 -10 -70 -74 -76
-133 -68 -131 -132 -24 -50 84 -59 93 -88 96 l-33 3 3 -153z"/>
<path d="M1196 588 c-243 -15 -482 -80 -715 -194 -73 -36 -131 -67 -129 -69 2
-2 55 12 118 31 570 174 1194 171 1738 -7 51 -17 95 -29 97 -27 7 7 -170 97
-271 137 -261 103 -547 148 -838 129z"/>
</g>
</svg>
